<?xml version="1.0" encoding="utf-8"?>

<!-- Uploaded to: SVG Repo, www.svgrepo.com, Generator: SVG Repo Mixer Tools -->
<svg height="800px" width="800px" version="1.1" id="Layer_1" xmlns="http://www.w3.org/2000/svg" xmlns:xlink="http://www.w3.org/1999/xlink" 
	 viewBox="0 0 100 100" enable-background="new 0 0 100 100" xml:space="preserve">
<g>
	<path fill="#231F20" d="M51.3,49c-0.1,0-0.2,0-0.2,0c-0.4-0.1-0.6-0.3-0.8-0.7c-0.3-0.9-0.8-1.6-1.4-2.2c-2.3-2.3-6.2-2.3-8.5,0
		c0,0-0.1,0.2-0.1,0.2c-0.3,0.3-0.7,0.4-1.1,0.3c-0.4-0.1-0.7-0.4-0.8-0.8c-1.2-5,0.3-10.1,3.9-13.8c3.6-3.6,8.8-5.1,13.8-3.9
		c0.4,0.1,0.7,0.4,0.8,0.8c0.1,0.4,0,0.8-0.3,1.1c0,0-0.1,0.1-0.1,0.1c-1.2,1.2-1.8,2.7-1.8,4.3c0,1.6,0.6,3.1,1.8,4.3
		c0.6,0.6,1.4,1.1,2.2,1.4c0.3,0.1,0.6,0.4,0.7,0.8c0.1,0.4,0,0.7-0.3,1l-6.9,6.9C51.9,48.9,51.6,49,51.3,49z M44.6,42.1
		c2.1,0,4.2,0.8,5.8,2.4c0.5,0.5,0.9,1,1.2,1.6l4.8-4.8c-0.6-0.3-1.1-0.7-1.6-1.2c-2.8-2.8-3.1-7.1-1.1-10.2
		c-3.7-0.4-7.3,0.9-10,3.6c-2.7,2.7-3.9,6.3-3.6,10C41.5,42.6,43.1,42.1,44.6,42.1z"/>
	<path fill="#231F20" d="M28.3,72.4c-0.3,0-0.5-0.1-0.8-0.3c-0.4-0.4-0.4-1.1,0-1.5l30.3-30.3c0.4-0.4,1.1-0.4,1.5,0
		c0.4,0.4,0.4,1.1,0,1.5L29.1,72.1C28.9,72.3,28.6,72.4,28.3,72.4z"/>
	<path fill="#231F20" d="M58.2,42.5c-0.3,0-0.6-0.1-0.8-0.3c-0.3-0.3-0.4-0.7-0.3-1l1.8-6.7c0.1-0.3,0.3-0.5,0.5-0.7l11.1-6.2
		c0.4-0.2,0.9-0.2,1.3,0.2c0.3,0.3,0.4,0.9,0.2,1.3l-6.2,11.1c-0.1,0.3-0.4,0.4-0.7,0.5l-6.7,1.8C58.4,42.5,58.3,42.5,58.2,42.5z
		 M60.9,35.4l-1.2,4.5l4.5-1.2l4.1-7.4L60.9,35.4z"/>
	<path fill="#231F20" d="M57.4,61.7c-1.1,0-2.3-0.1-3.5-0.4c-0.4-0.1-0.7-0.4-0.8-0.8c-0.1-0.4,0-0.8,0.3-1.1c0,0,0.1-0.1,0.1-0.1
		c2.4-2.4,2.4-6.2,0.1-8.6c-0.6-0.6-1.4-1.1-2.2-1.4c-0.3-0.1-0.6-0.4-0.7-0.8s0-0.7,0.3-1l6.9-6.9c0.3-0.3,0.6-0.4,1-0.3
		c0.4,0.1,0.6,0.3,0.8,0.7c0.3,0.9,0.8,1.6,1.4,2.2c1.1,1.1,2.6,1.8,4.3,1.8c1.6,0,3.1-0.6,4.3-1.8l0.2-0.2c0.3-0.3,0.7-0.4,1.1-0.3
		c0.4,0.1,0.7,0.4,0.8,0.8c1.2,5-0.3,10.1-3.9,13.8C64.9,60.2,61.2,61.7,57.4,61.7z M56.2,59.5c3.7,0.3,7.3-0.9,10-3.6
		c2.7-2.7,3.9-6.3,3.6-10c-3.2,2.1-7.4,1.7-10.2-1.1c-0.5-0.5-0.9-1-1.2-1.6L53.6,48c0.6,0.3,1.1,0.7,1.6,1.2
		C57.9,52,58.3,56.3,56.2,59.5z"/>
</g>
</svg>