<?xml version="1.0" encoding="utf-8"?>

<!-- Uploaded to: SVG Repo, www.svgrepo.com, Generator: SVG Repo Mixer Tools -->
<svg height="800px" width="800px" version="1.1" id="Layer_1" xmlns="http://www.w3.org/2000/svg" xmlns:xlink="http://www.w3.org/1999/xlink" 
	 viewBox="0 0 100 100" enable-background="new 0 0 100 100" xml:space="preserve">
<g>
	<path fill="#231F20" d="M52,49c-0.1,0-0.2,0-0.2,0c-0.4-0.1-0.6-0.3-0.8-0.7c-0.3-0.9-0.8-1.6-1.4-2.2c-2.3-2.3-6.2-2.3-8.5,0
		c0,0-0.1,0.2-0.1,0.2c-0.3,0.3-0.7,0.4-1.1,0.3c-0.4-0.1-0.7-0.4-0.8-0.8c-1.2-5,0.3-10.1,3.9-13.8c3.6-3.6,8.8-5.1,13.8-3.9
		c0.4,0.1,0.7,0.4,0.8,0.8c0.1,0.4,0,0.8-0.3,1.1c0,0-0.1,0.1-0.1,0.1c-2.4,2.4-2.4,6.2-0.1,8.6c0.6,0.6,1.4,1.1,2.2,1.4
		c0.3,0.1,0.6,0.4,0.7,0.8c0.1,0.4,0,0.7-0.3,1l-6.9,6.9C52.6,48.9,52.3,49,52,49z M45.4,42.1c2.1,0,4.2,0.8,5.8,2.4
		c0.5,0.5,0.9,1,1.2,1.6l4.8-4.8c-0.6-0.3-1.1-0.7-1.6-1.2c-2.8-2.8-3.1-7.1-1.1-10.2c-3.7-0.4-7.3,0.9-10,3.6
		c-2.7,2.7-3.9,6.3-3.6,10C42.3,42.6,43.8,42.1,45.4,42.1z"/>
	<path fill="#231F20" d="M29.1,72.4c-0.3,0-0.5-0.1-0.8-0.3c-0.4-0.4-0.4-1.1,0-1.5l30.3-30.3c0.4-0.4,1.1-0.4,1.5,0
		c0.4,0.4,0.4,1.1,0,1.5L29.8,72.1C29.6,72.3,29.4,72.4,29.1,72.4z"/>
	<path fill="#231F20" d="M59,42.5c-0.3,0-0.6-0.1-0.8-0.3c-0.3-0.3-0.4-0.7-0.3-1l1.8-6.7c0.1-0.3,0.3-0.5,0.5-0.7l11.1-6.2
		c0.4-0.2,0.9-0.2,1.3,0.2c0.3,0.3,0.4,0.9,0.2,1.3l-6.2,11.1c-0.1,0.3-0.4,0.4-0.7,0.5l-6.7,1.8C59.2,42.5,59.1,42.5,59,42.5z
		 M61.7,35.4l-1.2,4.5l4.5-1.2l4.1-7.4L61.7,35.4z"/>
	<path fill="#231F20" d="M65.8,56.3c-0.1,0-0.2,0-0.3-0.1l-7.3-2.4c-0.3-0.1-0.6-0.4-0.7-0.7l-1.8-6.7c-0.1-0.4,0-0.8,0.3-1
		c0.3-0.3,0.7-0.4,1-0.3l6.7,1.8c0.4,0.1,0.6,0.4,0.7,0.7l2.4,7.3c0.1,0.4,0,0.8-0.3,1.1C66.4,56.2,66.1,56.3,65.8,56.3z M59.4,52
		l4.8,1.6l-1.6-4.8l-4.4-1.1L59.4,52z"/>
	<path fill="#231F20" d="M54.4,49.8c-0.3,0-0.5-0.1-0.8-0.3c-0.4-0.4-0.4-1.1,0-1.5l5.3-5.3c0.4-0.4,1.1-0.4,1.5,0
		c0.4,0.4,0.4,1.1,0,1.5l-5.3,5.3C54.9,49.7,54.7,49.8,54.4,49.8z"/>
</g>
</svg>