<?xml version="1.0" encoding="utf-8"?>

<!-- Uploaded to: SVG Repo, www.svgrepo.com, Generator: SVG Repo Mixer Tools -->
<svg height="800px" width="800px" version="1.1" id="Layer_1" xmlns="http://www.w3.org/2000/svg" xmlns:xlink="http://www.w3.org/1999/xlink" 
	 viewBox="0 0 100 100" enable-background="new 0 0 100 100" xml:space="preserve">
<g>
	<path fill="#231F20" d="M35.4,65.5c-0.3,0-0.5-0.1-0.8-0.3c-0.4-0.4-0.4-1.1,0-1.5l27.5-27.5c0.4-0.4,1.1-0.4,1.5,0
		c0.4,0.4,0.4,1.1,0,1.5L36.2,65.1C36,65.4,35.7,65.5,35.4,65.5z"/>
	<path fill="#231F20" d="M25.6,75.3c-0.3,0-0.5-0.1-0.8-0.3c-0.4-0.4-0.4-1.1,0-1.5l2-2c0.4-0.4,1.1-0.4,1.5,0
		c0.4,0.4,0.4,1.1,0,1.5l-2,2C26.1,75.2,25.9,75.3,25.6,75.3z"/>
	<path fill="#231F20" d="M29.2,74.9c-0.3,0-0.5-0.1-0.8-0.3l-3.2-3.2c-0.4-0.4-0.4-1.1,0-1.5c0.4-0.4,1.1-0.4,1.5,0l3.2,3.2
		c0.4,0.4,0.4,1.1,0,1.5C29.7,74.8,29.4,74.9,29.2,74.9z"/>
	<path fill="#231F20" d="M37,67.1c-0.3,0-0.5-0.1-0.8-0.3L33,63.5c-0.4-0.4-0.4-1.1,0-1.5c0.4-0.4,1.1-0.4,1.5,0l3.2,3.2
		c0.4,0.4,0.4,1.1,0,1.5C37.6,67,37.3,67.1,37,67.1z"/>
	<path fill="#231F20" d="M31.5,72.4c-0.6,0-1.1-0.5-1.1-1.1v-6c0-0.6,0.5-1.1,1.1-1.1s1.1,0.5,1.1,1.1v6
		C32.6,71.9,32.1,72.4,31.5,72.4z"/>
	<path fill="#231F20" d="M34.5,69.4h-6c-0.6,0-1.1-0.5-1.1-1.1c0-0.6,0.5-1.1,1.1-1.1h6c0.6,0,1.1,0.5,1.1,1.1
		C35.6,68.9,35.1,69.4,34.5,69.4z"/>
	<path fill="#231F20" d="M58.8,64.5c-1.1,0-2.1-0.4-2.9-1.2L36.5,43.9c-1.6-1.6-1.6-4.2,0-5.8l12-12c1.5-1.5,4.3-1.5,5.8,0
		l19.4,19.4c1.6,1.6,1.6,4.2,0,5.8l-12,12C60.9,64.1,59.9,64.5,58.8,64.5z M51.4,27c-0.5,0-1,0.2-1.4,0.6l-12,12
		c-0.8,0.8-0.8,2,0,2.8l19.4,19.4l0,0c0.7,0.7,2,0.7,2.8,0l12-12c0.8-0.8,0.8-2,0-2.8L52.8,27.6C52.5,27.2,52,27,51.4,27z"/>
</g>
</svg>