<?xml version="1.0" encoding="utf-8"?>

<!-- Uploaded to: SVG Repo, www.svgrepo.com, Generator: SVG Repo Mixer Tools -->
<svg height="800px" width="800px" version="1.1" id="Layer_1" xmlns="http://www.w3.org/2000/svg" xmlns:xlink="http://www.w3.org/1999/xlink" 
	 viewBox="0 0 100 100" enable-background="new 0 0 100 100" xml:space="preserve">
<g>
	<path fill="#231F20" d="M36.9,73.9c-0.3,0-0.5-0.1-0.8-0.3c-0.4-0.4-0.4-1.1,0-1.5l30.3-30.3c0.4-0.4,1.1-0.4,1.5,0
		c0.4,0.4,0.4,1.1,0,1.5L37.7,73.6C37.5,73.8,37.2,73.9,36.9,73.9z"/>
	<path fill="#231F20" d="M63,50.6c-0.3,0-0.5-0.1-0.8-0.3c-0.4-0.4-0.4-1.1,0-1.5l5.3-5.3c0.4-0.4,1.1-0.4,1.5,0
		c0.4,0.4,0.4,1.1,0,1.5l-5.3,5.3C63.6,50.5,63.3,50.6,63,50.6z"/>
	<path fill="#231F20" d="M60.7,50.2c-0.1,0-0.2,0-0.3,0c-0.4-0.1-0.7-0.4-0.7-0.8c-0.7-3.6-2.4-6.8-5-9.4c-5.9-5.9-14.9-7-22-2.7
		c-0.4,0.3-1,0.2-1.3-0.2c-0.3-0.3-0.4-0.9-0.2-1.3c0.8-1.4,1.9-2.7,3-3.9c3.8-3.8,8.9-5.9,14.2-5.9c5.4,0,10.4,2.1,14.2,5.9
		c2.9,2.9,4.8,6.5,5.5,10.5c0.1,0.3,0,0.7-0.3,1l-6.5,6.5C61.2,50.1,61,50.2,60.7,50.2z M42,32.5c5.2,0,10.3,2,14.2,5.9l0,0
		c2.4,2.4,4.2,5.4,5.1,8.6l4.8-4.8c-0.7-3.4-2.4-6.4-4.8-8.9c-3.4-3.4-7.9-5.3-12.7-5.3c-4.8,0-9.3,1.9-12.7,5.3
		c0,0-0.1,0.1-0.1,0.1C37.7,32.8,39.8,32.5,42,32.5z"/>
	<path fill="#231F20" d="M63.8,47.1c-0.5,0-1-0.4-1.1-0.9c-0.7-3.6-2.4-6.8-5-9.4c-1.9-1.9-4.1-3.3-6.6-4.2
		c-0.6-0.2-0.8-0.8-0.6-1.4c0.2-0.6,0.8-0.8,1.4-0.6c2.8,1,5.3,2.6,7.4,4.7c2.9,2.9,4.8,6.5,5.5,10.5c0.1,0.6-0.3,1.1-0.9,1.2
		C63.9,47.1,63.9,47.1,63.8,47.1z"/>
</g>
</svg>