<?xml version="1.0" encoding="utf-8"?>

<!-- Uploaded to: SVG Repo, www.svgrepo.com, Generator: SVG Repo Mixer Tools -->
<svg height="800px" width="800px" version="1.1" id="Layer_1" xmlns="http://www.w3.org/2000/svg" xmlns:xlink="http://www.w3.org/1999/xlink" 
	 viewBox="0 0 100 100" enable-background="new 0 0 100 100" xml:space="preserve">
<g>
	<path fill="#231F20" d="M26.3,73.7c-0.3,0-0.5-0.1-0.8-0.3c-0.4-0.4-0.4-1.1,0-1.5l5.8-5.8c0.4-0.4,1.1-0.4,1.5,0
		c0.4,0.4,0.4,1.1,0,1.5l-5.8,5.8C26.9,73.6,26.6,73.7,26.3,73.7z"/>
	<path fill="#231F20" d="M33.7,69.6c-0.3,0-0.5-0.1-0.8-0.3l-3.2-3.2c-0.4-0.4-0.4-1.1,0-1.5c0.4-0.4,1.1-0.4,1.5,0l3.2,3.2
		c0.4,0.4,0.4,1.1,0,1.5C34.3,69.5,34,69.6,33.7,69.6z"/>
	<path fill="#231F20" d="M36,67.1c-0.6,0-1.1-0.5-1.1-1.1v-6c0-0.6,0.5-1.1,1.1-1.1c0.6,0,1.1,0.5,1.1,1.1v6
		C37.1,66.6,36.6,67.1,36,67.1z"/>
	<path fill="#231F20" d="M39.1,64.1h-6c-0.6,0-1.1-0.5-1.1-1.1c0-0.6,0.5-1.1,1.1-1.1h6c0.6,0,1.1,0.5,1.1,1.1
		C40.1,63.6,39.7,64.1,39.1,64.1z"/>
	<path fill="#231F20" d="M46,65.7c-0.2,0-0.4-0.1-0.6-0.2l-6.7-4.9c-0.1-0.1-0.2-0.1-0.2-0.2l-4.9-6.7c-0.2-0.3-0.3-0.7-0.1-1
		c0.1-0.3,0.4-0.6,0.8-0.7l7.4-1.4l29.5-24.2c0.4-0.3,1-0.3,1.4,0.1c0.4,0.4,0.4,1,0.1,1.4L48.5,57.4l-1.4,7.4
		c-0.1,0.4-0.3,0.7-0.7,0.8C46.3,65.7,46.1,65.7,46,65.7z M40.1,58.9l5.2,3.8l1.1-6c0-0.2,0.1-0.3,0.2-0.5l17.5-21.4L42.8,52.4
		c-0.1,0.1-0.3,0.2-0.5,0.2l-6,1.1L40.1,58.9z"/>
	<path fill="#231F20" d="M47.5,58c-0.3,0-0.5-0.1-0.8-0.3l-5.4-5.4c-0.4-0.4-0.4-1.1,0-1.5c0.4-0.4,1.1-0.4,1.5,0l5.4,5.4
		c0.4,0.4,0.4,1.1,0,1.5C48,57.9,47.7,58,47.5,58z"/>
</g>
</svg>