<?xml version="1.0" ?>

<!-- Uploaded to: SVG Repo, www.svgrepo.com, Generator: SVG Repo Mixer Tools -->
<svg width="50px" height="50px" viewBox="0 0 512 512" id="Layer_1" version="1.1" xml:space="preserve" xmlns="http://www.w3.org/2000/svg" xmlns:xlink="http://www.w3.org/1999/xlink">

<style type="text/css">
	.st0{fill:#4CC3F2;}
	.st1{fill:#0A557F;}
	.st2{fill:#FFFFFF;}
	.st3{fill:#CFF1FF;}
</style>

<g>

<polygon class="st0" points="207.2,86 207.2,103.9 264.6,103.9 264.6,57.4 214.7,57.4 214.7,86  "/>

<circle class="st0" cx="239.7" cy="330.9" r="166.8"/>

<path class="st1" d="M258.4,157.1c-5.2-0.6-10.5-0.9-15.7-1l-0.3,15c4.8,0.1,9.6,0.4,14.4,0.9L258.4,157.1z"/>

<path class="st2" d="M341.6,228.4c-5.8-5.8-12.1-11.1-18.8-15.8l-8.6,12.3c6,4.2,11.7,9,16.9,14.2L341.6,228.4z"/>

<path class="st2" d="M331,421.7l10.6,10.6c27.2-27.2,42.2-63.4,42.2-102c0-31.4-9.9-61.2-28.5-86.1l-12,9   c16.7,22.3,25.5,49,25.5,77.2C368.8,364.8,355.4,397.3,331,421.7z"/>

<polygon class="st3" points="404.5,100.7 399.1,120.7 384.5,106.1 364.4,111.4 369.8,91.4 355.1,76.7 366.8,73.6 384.5,91.3    395.1,80.7 377.4,63 380.5,51.3 395.2,66 415.2,60.6 409.9,80.6 424.5,95.3  "/>

<path class="st1" d="M380,122.8l26.9,26.9l9.9-36.8l36.8-9.9l-26.9-26.9l9.9-36.8l-36.8,9.9l-26.9-26.9l-7.6,28.4L321.9,7.5   l-89.8,0v34.9h-32.5V86h15V57.4h50v46.5h-88.9v64.3c-23.8,9.4-45.5,24-63.4,43.2C82.1,243.8,65.5,286,65.5,330.3   c0,96,78.1,174.2,174.2,174.2c96,0,174.2-78.1,174.2-174.2c0-40.1-13.9-79.2-39.3-110.2c-18.9-23.1-43.5-41-71-51.9v-64.4h-23.9   V42.4h-32.5V22.5l68.6,0l38.8,38.8L326.1,69l26.9,26.9l-9.9,36.8L380,122.8z M288.6,118.9v44.2c-4-1.2-8.1-2.2-12.2-3.1l-3.1,14.7   c72.8,15.6,125.6,81.1,125.6,155.6c0,87.8-71.4,159.2-159.2,159.2c-87.8,0-159.2-71.4-159.2-159.2c0-83.1,64.8-152.8,147.6-158.8   l-1.1-15c-12.4,0.9-24.5,3.1-36.3,6.5v-44.2H288.6z M366.8,73.6l17.7,17.7l10.6-10.6L377.4,63l3.1-11.7L395.2,66l20-5.4l-5.4,20   l14.7,14.7l-20,5.4l-5.4,20l-14.7-14.7l-20,5.4l5.4-20l-14.7-14.7L366.8,73.6z"/>

<rect class="st1" height="67.3" width="15" x="482" y="189.4"/>

<rect class="st1" height="15" width="15" x="482" y="271.7"/>

<rect class="st1" height="67.3" width="15" x="15" y="306.4"/>

<rect class="st1" height="15" width="15" x="15" y="388.7"/>

</g>

</svg>