<?xml version="1.0" ?>
<!-- Uploaded to: SVG Repo, www.svgrepo.com, Generator: SVG Repo Mixer Tools -->
<svg width="800px" height="800px" viewBox="0 0 512 512" id="Layer_1" version="1.1" xml:space="preserve" xmlns="http://www.w3.org/2000/svg" xmlns:xlink="http://www.w3.org/1999/xlink">
<style type="text/css">
	.st0{fill:#0A557F;}
	.st1{fill:#4CC3F2;}
	.st2{fill:#CFF1FF;}
</style>
<g>
<rect class="st0" height="67.3" width="15" x="410.5" y="152.7"/>
<rect class="st0" height="15" width="15" x="410.5" y="235.1"/>
<rect class="st0" height="67.3" width="15" x="86.5" y="371.8"/>
<rect class="st0" height="15" width="15" x="86.5" y="454.1"/>
<path class="st1" d="M411.4,299.3l-105.7-13.1L256,186.5l-49.7,99.8l-105.7,13.1l79.2,87.8l-19,94l95.2-44.3l95.2,44.3l-19-94   L411.4,299.3z M256,401.2l-50.7,23.6l9.5-47.2l-48.5-53.7l61.2-7.6l28.5-57.1l28.5,57.1l61.2,7.6l-48.5,53.7l9.5,47.2L256,401.2z"/>
<path class="st0" d="M376.1,312.5l-81.8-10.1L256,225.5l-38.3,76.9l-81.8,10.1l62.7,69.5l-13.9,68.9l71.3-33.2l71.3,33.2L313.4,382   L376.1,312.5z M256,401.2l-50.7,23.6l9.5-47.2l-48.5-53.7l61.2-7.6l28.5-57.1l28.5,57.1l61.2,7.6l-48.5,53.7l9.5,47.2L256,401.2z"/>
<polygon class="st2" points="185.7,94.9 185.7,34.7 170.7,34.7 170.7,94.9 105.7,94.9 105.7,19.7 250.7,19.7 250.7,79.8    265.7,79.8 265.7,19.7 410.6,19.7 410.6,94.9 345.6,94.9 345.6,34.7 330.6,34.7 330.6,94.9  "/>
<path class="st0" d="M441.8,288l-126.3-15.6l-51.1-102.7l29.8-59.8h131.5V4.7H90.7v105.2h127.2l29.8,59.8l-51.1,102.7L70.2,288   l93.5,103.6l-23.4,115.7L256,453.4l115.7,53.8l-23.4-115.7L441.8,288z M185.7,94.9V34.7h-15v60.2h-65V19.7h145v60.1h15V19.7h145   v75.2h-65V34.7h-15v60.2H185.7z M234.6,109.9h42.8L256,152.8L234.6,109.9z M351.2,481.2L256,436.9l-95.2,44.3l19-94l-79.2-87.8   l105.7-13.1l49.7-99.8l49.7,99.8l105.7,13.1l-79.2,87.8L351.2,481.2z"/>
</g>
</svg>