<?xml version="1.0" ?>

<!-- Uploaded to: SVG Repo, www.svgrepo.com, Generator: SVG Repo Mixer Tools -->
<svg fill="#000000" width="50px" height="50px" viewBox="0 0 512 512" version="1.1" xml:space="preserve" xmlns="http://www.w3.org/2000/svg" xmlns:xlink="http://www.w3.org/1999/xlink">

<g id="High_Visibility_Vest">

<g id="XMLID_542_">

<polygon id="XMLID_543_" points="299.982,22 212.018,22 256,110.089   "/>

<rect height="19" id="XMLID_626_" width="128" x="306" y="381"/>

<path d="M377.52,66.697C375.171,40.665,377.436,16,379.172,2H332.2l-67.29,134.749    c-0.021,0.042-0.031,0.067-0.052,0.109c0.713,1.373,1.141,2.917,1.141,4.571V201h29.85c5.502,0,10.15,4.666,10.15,10.168V221h128    v-59.905C401,149.736,382.09,117.319,377.52,66.697z" id="XMLID_627_"/>

<rect height="20" id="XMLID_1041_" width="128" x="306" y="241"/>

<path d="M306,290.869c0,5.502-4.648,10.131-10.15,10.131H266v40h29.85c5.502,0,10.15,4.143,10.15,9.645V361h128    v-80H306V290.869z" id="XMLID_1084_"/>

<path d="M132.828,2c1.736,14,4.001,38.665,1.651,64.697C129.91,117.319,110,149.736,78,161.095V221h128v-9.832    c0-5.502,4.648-10.168,10.149-10.168H246v-66.381L179.8,2H132.828z" id="XMLID_545_"/>

<path d="M247.089,136.726l-0.318-0.637c0.117,0.693,0.247,1.031,0.389,0.758    C247.138,136.805,247.11,136.768,247.089,136.726z" id="XMLID_617_"/>

<rect height="60" id="XMLID_1086_" width="60" x="226" y="221"/>

<path d="M306,430.346c0,5.502-4.648,9.654-10.15,9.654H266v70h168v-90H306V430.346z" id="XMLID_1087_"/>

<rect height="20" id="XMLID_1088_" width="128" x="78" y="241"/>

<rect height="59" id="XMLID_1089_" width="60" x="226" y="361"/>

<path d="M206,350.645c0-5.502,4.648-9.645,10.149-9.645H246v-40h-29.851c-5.502,0-10.149-4.629-10.149-10.131    V281H78v80h128V350.645z" id="XMLID_1091_"/>

<path d="M206,430.346V420H78v90h168v-70h-29.851C210.648,440,206,435.848,206,430.346z" id="XMLID_1092_"/>

<rect height="19" id="XMLID_1093_" width="128" x="78" y="381"/>

</g>

</g>

<g id="Layer_1"/>

</svg>