<?xml version="1.0" ?>
<!-- Uploaded to: SVG Repo, www.svgrepo.com, Generator: SVG Repo Mixer Tools -->
<svg width="800px" height="800px" viewBox="0 0 64 64" xmlns="http://www.w3.org/2000/svg">
<defs>
<style>.cls-1{fill:#92d39d;}.cls-2{fill:#aaddb4;}.cls-3{fill:#f0f4f7;}.cls-4{fill:#dd5891;}</style>
</defs>
<g id="Orc">
<path class="cls-1" d="M15.05,8.43a1.56,1.56,0,0,0-.63,1c-1.35,10.92,1.08,17.26,5.22,19.26l4-.49,1.09-5.12-2.85-7.84Z" id="path58698-7"/>
<path class="cls-2" d="M15.8,8.18a1.26,1.26,0,0,0-.76.25C16.28,9.74,20,14.1,22.39,22l2.35,1.15L26,17l-2.42-.58c-3.12-5-5.35-7.43-7.52-8.14Z" id="path61012-7"/>
<path class="cls-1" d="M48.92,8.43l-6.84,6.84-2.85,7.84,1.08,5.12,4,.49c4.13-2,6.56-8.34,5.21-19.26A1.59,1.59,0,0,0,48.92,8.43Z" id="path326366"/>
<path class="cls-2" d="M48.16,8.18a1.5,1.5,0,0,0-.29.06c-2.18.71-4.41,3.11-7.52,8.14L37.92,17l1.31,6.15L41.57,22C44,14.1,47.68,9.74,48.92,8.43A1.26,1.26,0,0,0,48.16,8.18Z" id="path326368"/>
<path class="cls-1" d="M43.37,40.19C51,42.38,53.62,48.85,54.54,52.8A2.64,2.64,0,0,1,51.78,56H12.42a2.83,2.83,0,0,1-2.95-3.45c1-4,3.67-10.21,11.12-12.36Z" id="path62642-2"/>
<path class="cls-2" d="M16.86,50.53a1,1,0,0,0,0,2H28.42a1.29,1.29,0,0,1,1.12.65,1,1,0,0,0,1.37.37h0a1,1,0,0,0,.37-1.37h0a3.3,3.3,0,0,0-2.86-1.65Z" id="path131588-6-3-2"/>
<path class="cls-2" d="M35.53,50.53a3.29,3.29,0,0,0-2.85,1.65A1,1,0,0,0,33,53.55a1,1,0,0,0,1.37-.37,1.3,1.3,0,0,1,1.12-.65H47.09a1,1,0,0,0,0-2Z" id="path132344-1-6-0"/>
<path class="cls-2" d="M28.79,45.47a1,1,0,0,0-.53,1.31l1,2.39a1,1,0,0,0,1.31.53,1,1,0,0,0,.53-1.31h0L30.1,46A1,1,0,0,0,28.79,45.47Z" id="path133885-0-2"/>
<path class="cls-2" d="M35.16,45.47a1,1,0,0,0-1.31.53h0l-1,2.38a1,1,0,0,0,.53,1.32h0a1,1,0,0,0,1.31-.53l1-2.39A1,1,0,0,0,35.16,45.47Z" id="path133967-6-3"/>
<path class="cls-2" d="M19.64,28.72A13.22,13.22,0,1,0,45.2,33.46a13.27,13.27,0,0,0-.88-4.77c-1.35-3.49-4-8.55-4-12.33a8.36,8.36,0,1,0-16.72,0C23.62,20.17,21,25.23,19.64,28.72Z" id="rect56690-5"/>
<path class="cls-3" d="M38.15,30.06c-.17-.71-.41-1-.68-1s-.62.42-.89,1.2a18.13,18.13,0,0,1-2.1,4A11.1,11.1,0,0,1,38,35.49,10.64,10.64,0,0,0,38.15,30.06Z" id="path312035"/>
<path class="cls-3" d="M29.48,34.26a17.93,17.93,0,0,1-2.11-4c-.27-.78-.59-1.2-.89-1.2s-.51.34-.68,1a10.64,10.64,0,0,0,.14,5.43A11.17,11.17,0,0,1,29.48,34.26Z" id="path58110-4"/>
<path class="cls-4" d="M30.64,22.59a2.6,2.6,0,1,1-5-1.35Z" id="path317509"/>
<path class="cls-4" d="M33.31,22.59a2.61,2.61,0,0,0,5-1.35Z" id="path317511"/>
<path class="cls-1" d="M32,33.05a13.65,13.65,0,0,0-5.87,1.23,8.5,8.5,0,0,0-2,1.31,1,1,0,0,0,0,1.42h0a1,1,0,0,0,1.41,0h0a5.63,5.63,0,0,1,1.5-1,11.7,11.7,0,0,1,5-1,11.73,11.73,0,0,1,5,1,5.63,5.63,0,0,1,1.5,1,1,1,0,0,0,1.39-1.44h0a8.5,8.5,0,0,0-2-1.31A13.64,13.64,0,0,0,32,33.05Z" id="path57348"/>
<path class="cls-1" d="M33.31,19.46a1,1,0,0,0-1,1v2.13h0a1.22,1.22,0,0,0,0,.26,1,1,0,0,0,1.23.7l5-1.35a1,1,0,0,0,.7-1.22,1,1,0,0,0-1.22-.71l-3.78,1v-.83A1,1,0,0,0,33.31,19.46Z" id="path175736"/>
<path class="cls-1" d="M30.64,19.46a1,1,0,0,0-1,1v.83l-3.78-1a1,1,0,1,0-.51,1.93l5,1.35a1,1,0,0,0,1.23-.7,1.22,1.22,0,0,0,0-.26h0V20.46A1,1,0,0,0,30.64,19.46Z" id="path174156"/>
</g>
</svg>