<?xml version="1.0" ?>
<!-- Uploaded to: SVG Repo, www.svgrepo.com, Generator: SVG Repo Mixer Tools -->
<svg width="800px" height="800px" viewBox="0 0 64 64" xmlns="http://www.w3.org/2000/svg">
<defs>
<style>.cls-1{fill:#efc89d;}.cls-2{fill:#ebb87f;}.cls-3{fill:#aaddb4;}.cls-4{fill:#92d39d;}</style>
</defs>
<g id="Medusa">
<path class="cls-1" d="M36.9,38.25v2.43L44.23,45c2.57,1.5,4.69,3.66,5.27,6.58A1.52,1.52,0,0,1,48,53.36h-4.2L32,50.25,20.19,53.36H16a1.52,1.52,0,0,1-1.49-1.82c.58-2.92,2.7-5.08,5.28-6.58l7.32-4.28V38.25Z" id="path123162-6-20-5"/>
<path class="cls-2" d="M27.1,38.25v2a9.27,9.27,0,0,0,5,1.55,9.16,9.16,0,0,0,4.83-1.46v-2Z" id="path213951"/>
<path class="cls-3" d="M43.81,53.36a6.21,6.21,0,0,0-10-5,2.74,2.74,0,0,1-3.72,0,6.21,6.21,0,0,0-9.95,5Z" id="path453839-2"/>
<path class="cls-4" d="M30.11,14.8,16.83,19.43a14.53,14.53,0,0,0-.5,4.8l1.1,5a16.26,16.26,0,0,0,1.94,3.6,3.8,3.8,0,0,1,.94,2.7,4.12,4.12,0,0,1-.91,2.13A9.86,9.86,0,0,1,16.82,40a2,2,0,0,0,1.93,3.51,13.17,13.17,0,0,0,3.85-3.35,8.18,8.18,0,0,0,1.7-4.21l16.57-1.35a9.87,9.87,0,0,0,2.81,5.33,2,2,0,1,0,2.93-2.72c-1.44-1.55-1.77-2.57-1.8-3.43a6.23,6.23,0,0,1,.91-3c.12-.24.26-.49.4-.75l1.76-4a9.52,9.52,0,0,0-.08-5.66,17,17,0,0,0-1.38-3.18Z" id="path111756-6"/>
<path class="cls-1" d="M19.9,26.23a16.58,16.58,0,0,0,.88,3.85c2,5.13,6.33,9.67,11.29,9.67s9.25-4.54,11.29-9.67A13.32,13.32,0,0,0,44,27.61l-10.73-8Z" id="path105998-6"/>
<path class="cls-3" d="M43.84,13.78c-2.62-2.53-7.22-3.14-12.84-3.14s-10.54,2.82-12.24,4.95a13.32,13.32,0,0,0-5.55.92,8.64,8.64,0,0,0-5.1,4.78,1.89,1.89,0,1,0,3.56,1.27,6,6,0,0,1,3-2.55c1.93-.8,4.92-1.15,9.45.54,1.17.43,2.24.71,2.16,1s-1.44.52-3.18.45a9,9,0,0,0-8.8,5,13.09,13.09,0,0,0-.09,9.92,1.89,1.89,0,0,0,3.56-1.28,9.61,9.61,0,0,1,0-7c.84-1.8,2.23-2.92,5.22-2.8a13.5,13.5,0,0,0,8.8-2.53A9.78,9.78,0,0,0,33,22.09a13,13,0,0,0,5.73,3.2c3.86,1.12,5.73,2.44,6.67,3.55a5.32,5.32,0,0,1,1.25,3.23,1.89,1.89,0,1,0,3.76-.45,9.6,9.6,0,0,0-2.12-5.23c-1.58-1.85-4.19-3.48-8.49-4.74-3.68-1.07-4.61-2.51-4.37-2.87s1.11-.23,2-.2c2.81.11,5.75-.74,8.34-1.37,1.81-.45,3.32.41,4.62,1.63a12.34,12.34,0,0,1,2.06,2.59,1.89,1.89,0,1,0,3.31-1.82A15.66,15.66,0,0,0,53,16.08a8.81,8.81,0,0,0-8.1-2.55l-1,.25Z" id="path103309-3"/>
<path class="cls-2" d="M29.17,43.46a1,1,0,0,0-.66,1.25l.6,2a1,1,0,0,0,1.25.67h0A1,1,0,0,0,31,46.15h0l-.61-2a1,1,0,0,0-1.25-.67Z" id="path251605-3"/>
<path class="cls-2" d="M34.83,43.46a1,1,0,0,0-1.25.67h0l-.61,2a1,1,0,0,0,.67,1.25h0a1,1,0,0,0,1.25-.67h0l.6-2A1,1,0,0,0,34.83,43.46Z" id="path251687-6"/>
</g>
</svg>