<?xml version="1.0" ?>
<!-- Uploaded to: SVG Repo, www.svgrepo.com, Generator: SVG Repo Mixer Tools -->
<svg width="800px" height="800px" viewBox="0 0 64 64" xmlns="http://www.w3.org/2000/svg">
<defs>
<style>.cls-1{fill:#748a95;}.cls-2{fill:#617880;}.cls-3{fill:#d9387c;}.cls-4{fill:#e0e9ee;}.cls-5{fill:#dd5891;}.cls-6{fill:#f0f4f7;}.cls-7{fill:#f6e782;}</style>
</defs>
<g id="Minotaur">
<path class="cls-1" d="M19.07,33.17s-2.94,2.26-10.45,2.32c-1-3.33,1.62-11,6.48-15.41l7.19-.77,2.27,5.86Z" id="path208793-0"/>
<path class="cls-2" d="M21.88,29.07l-5,.32a11.76,11.76,0,0,0-8.26,6.1c7.51-.06,10.45-2.32,10.45-2.32Z" id="path208793-0-2"/>
<path class="cls-3" d="M24.36,40.16s-8.51,2.49-12.22,5.21c-2.81,2.07-3.51,4.85-3.41,7.79A3.13,3.13,0,0,0,11.87,56H52.13a3.13,3.13,0,0,0,3.14-2.84c.1-2.94-.6-5.72-3.41-7.79-3.71-2.72-12.22-5.21-12.22-5.21Z" id="path211966-6"/>
<path class="cls-1" d="M44.93,33.17s2.94,2.26,10.45,2.32c1-3.33-1.62-11-6.48-15.41l-7.19-.77-2.27,5.86Z" id="path48906"/>
<path class="cls-2" d="M42.12,29.07l5,.32a11.76,11.76,0,0,1,8.26,6.1c-7.51-.06-10.45-2.32-10.45-2.32Z" id="path48908"/>
<path class="cls-4" d="M25.93,17.47c-3.7-5.83-4.9-7.33-10.59-7.35a7.1,7.1,0,0,1-3.89-1c-2-1.28-3.15-1.75-3.3.64a13.16,13.16,0,0,0,.38,4.14c1.22,4.77,6.59,3.8,8.35,9.06L23.51,22Z" id="path222881-2"/>
<path class="cls-4" d="M38.07,17.47c3.7-5.83,4.9-7.33,10.59-7.35a7.1,7.1,0,0,0,3.89-1c2-1.28,3.15-1.75,3.3.64a13.16,13.16,0,0,1-.38,4.14c-1.22,4.77-6.59,3.8-8.35,9.06L40.49,22Z" id="path208425-7"/>
<path class="cls-5" d="M20.85,18.47a8.76,8.76,0,0,0-4.59,7.7,7.64,7.64,0,0,0,.07,1.08c.52,4.28,4.55,8,7.14,11.23A5.94,5.94,0,0,1,24,44.64,3.1,3.1,0,0,0,23.7,46a3.19,3.19,0,0,0,3.2,3.19H37.1A3.19,3.19,0,0,0,40.3,46a3.24,3.24,0,0,0-.32-1.4,5.94,5.94,0,0,1,.55-6.16c2.59-3.26,6.62-7,7.14-11.23a9.48,9.48,0,0,0,.07-1.08,8.76,8.76,0,0,0-4.59-7.7L32,20.9Z" id="path37166"/>
<path class="cls-6" d="M25,17.42a8.73,8.73,0,0,0-4.16,1c.84,3.41,5.58,5.92,11.15,5.92s10.31-2.51,11.15-5.92a8.73,8.73,0,0,0-4.16-1,9,9,0,0,0-2.2.29,19.07,19.07,0,0,1-9.55,0A8.74,8.74,0,0,0,25,17.42Z" id="path211371-0"/>
<path class="cls-7" d="M28.46,46.4a1,1,0,0,0-.74.31,6.06,6.06,0,1,0,8.56,0,1,1,0,0,0-1.48,0,1.06,1.06,0,0,0,0,1.49,4,4,0,1,1-5.6,0,1.06,1.06,0,0,0,0-1.49A1,1,0,0,0,28.46,46.4Z" id="path211771"/>
<path class="cls-5" d="M16,51.18a1.05,1.05,0,0,0,0,2.09l4.18.58A4.1,4.1,0,0,1,23.23,56h2.21a1,1,0,0,0-.07-.39,6.21,6.21,0,0,0-4.91-3.84l-4.18-.59Zm32,0h-.28l-4.18.59a6.21,6.21,0,0,0-4.91,3.84,1,1,0,0,0-.07.39h2.21a4.1,4.1,0,0,1,3.06-2.15L48,53.27a1.05,1.05,0,0,0,0-2.09Z" id="path215579"/>
</g>
</svg>