<?xml version="1.0" ?>
<!DOCTYPE svg  PUBLIC '-//W3C//DTD SVG 1.1//EN'  'http://www.w3.org/Graphics/SVG/1.1/DTD/svg11.dtd'>
<!-- Uploaded to: SVG Repo, www.svgrepo.com, Generator: SVG Repo Mixer Tools -->
<svg width="800px" height="800px" viewBox="0 -5 1029 1029" style="shape-rendering:geometricPrecision; text-rendering:geometricPrecision; image-rendering:optimizeQuality; fill-rule:evenodd; clip-rule:evenodd" version="1.1" xml:space="preserve" xmlns="http://www.w3.org/2000/svg" xmlns:xlink="http://www.w3.org/1999/xlink">
<defs>
<style type="text/css">
   <![CDATA[
    .fil0 {fill:#FEFEFE}
    .fil1 {fill:#1D1819}
   ]]>
  </style>
</defs>
<g id="Layer_x0020_1">
<g id="_792330640">
<polygon class="fil0" points="964,1019 643,1019 643,954 578,954 578,889 451,889 451,954 386,954 386,1019 65,1019 65,893 130,893 130,814 65,814 65,637 0,637 0,382 65,382 65,442 130,442 130,507 195,507 195,382 130,382 130,0 195,0 195,61 321,61 321,0 386,0 386,61 451,61 451,0 578,0 578,61 643,61 643,0 708,0 708,61 834,61 834,0 899,0 899,382 834,382 834,442 834,507 899,507 899,442 964,442 964,382 1029,382 1029,637 964,637 964,828 899,828 899,893 964,893 "/>
<path class="fil1" d="M130 0l65 0 0 61 65 0 61 0 65 0 0 126 65 0 0 -126 -65 0 0 -61 -65 0 0 61 0 65 0 61 -61 0 0 -61 -65 0 0 256 65 0 0 125 65 0 0 65 -65 0 0 -65 -65 0 0 65 -65 0 0 -65 -65 0 0 130 65 0 0 191 130 0 61 0 0 -65 0 -61 0 -2 -126 0 0 63 65 0 0 65 0 65 -130 0 -65 0 0 61 0 65 65 0 256 0 0 -65 65 0 0 -65 -65 0 0 65 -256 0 0 -61 0 -65 -65 0 0 -191 -65 0 0 -255 65 0 0 60 65 0 0 65 65 0 0 -125 -65 0 0 -382zm321 889l62 0 2 0 63 0 65 0 0 65 256 0 0 -61 0 -65 65 0 0 -191 65 0 0 -255 -65 0 0 60 -65 0 0 65 -65 0 -65 0 -65 0 0 65 0 65 -189 0 -2 0 -188 0 0 -65 188 0 2 0 189 0 65 0 0 -65 0 -125 65 0 0 -256 -65 0 0 61 -61 0 0 -61 0 -65 -65 0 0 126 -65 0 0 -126 65 0 0 -61 65 0 0 61 61 0 65 0 0 -61 65 0 0 382 -65 0 0 125 0 65 65 0 0 -65 65 0 0 130 -65 0 0 191 -130 0 -61 0 0 -65 0 -61 0 -2 126 0 0 63 -65 0 0 65 0 65 130 0 65 0 0 61 0 65 -65 0 -256 0 0 -65 -65 0 0 -65 0 -61 -63 0 -2 0 -62 0 0 61zm192 -572l-65 0 0 129 65 0 0 -64 65 0 0 -130 -65 0 0 65zm-65 -256l-63 0 -2 0 -62 0 0 -61 62 0 2 0 63 0 0 61zm-192 256l65 0 0 129 -65 0 0 -64 -65 0 0 -130 65 0 0 65z"/>
</g>
</g>
</svg>