<?xml version="1.0" ?>
<!DOCTYPE svg  PUBLIC '-//W3C//DTD SVG 1.1//EN'  'http://www.w3.org/Graphics/SVG/1.1/DTD/svg11.dtd'>
<!-- Uploaded to: SVG Repo, www.svgrepo.com, Generator: SVG Repo Mixer Tools -->
<svg width="800px" height="800px" viewBox="-97.5 0 1019 1019" style="shape-rendering:geometricPrecision; text-rendering:geometricPrecision; image-rendering:optimizeQuality; fill-rule:evenodd; clip-rule:evenodd" version="1.1" xml:space="preserve" xmlns="http://www.w3.org/2000/svg" xmlns:xlink="http://www.w3.org/1999/xlink">
<defs>
<style type="text/css">
   <![CDATA[
    .fil0 {fill:#FEFEFE}
    .fil1 {fill:#1D1819}
   ]]>
  </style>
</defs>
<g id="Layer_x0020_1">
<g id="_784043440">
<polygon class="fil0" points="824,1019 503,1019 503,954 377,954 377,998 356,998 356,1019 61,1019 61,893 122,893 122,828 61,828 61,637 122,637 122,446 61,446 61,381 0,381 0,256 61,256 61,191 0,191 0,126 61,126 61,65 254,65 254,0 507,0 507,65 759,65 759,126 824,126 824,191 759,191 759,256 824,256 824,381 759,381 759,637 824,637 824,828 759,828 759,893 824,893 "/>
<path class="fil1" d="M61 65l191 0 0 -65 60 0 195 0 0 65 252 0 0 61 0 65 -191 0 0 65 191 0 0 125 65 0 0 -125 -65 0 0 -65 65 0 0 -65 -65 0 -252 0 -61 0 0 65 61 0 0 -65 0 -61 -195 0 0 61 0 65 -60 0 0 -65 -191 0 -61 0 0 65 61 0 0 65 -61 0 0 125 61 0 0 65 61 0 0 191 -65 0 0 191 65 0 65 0 0 -61 65 0 381 0 0 61 -65 0 0 65 0 61 191 0 0 -61 65 0 0 61 0 65 -65 0 -256 0 0 -65 -126 0 0 65 -255 0 -65 0 0 -65 0 -61 65 0 130 0 316 0 65 0 126 0 0 -65 -61 0 0 -61 -65 0 0 -65 65 0 0 -65 61 0 0 191 65 0 0 -191 -65 0 0 -191 0 -65 -61 0 -130 0 -65 0 -61 0 -130 0 0 -62 0 -65 -60 0 0 65 -65 0 0 62 65 0 60 0 0 65 -60 0 0 126 60 0 0 -126 130 0 0 -65 0 -62 0 -65 61 0 0 65 65 0 0 62 0 65 -61 0 0 126 61 0 0 -126 130 0 0 191 -65 0 0 65 -381 0 0 -65 -65 0 0 -191 0 -65 -65 0 -61 0 0 -125 126 0 0 -65 -126 0 0 -65 0 -61zm191 889l0 -61 0 -14 0 -51 0 -61 0 -65 -65 0 0 -65 -65 0 0 191 0 65 0 61 130 0z"/>
</g>
</g>
</svg>