<?xml version="1.0" ?>
<!DOCTYPE svg  PUBLIC '-//W3C//DTD SVG 1.1//EN'  'http://www.w3.org/Graphics/SVG/1.1/DTD/svg11.dtd'>
<!-- Uploaded to: SVG Repo, www.svgrepo.com, Generator: SVG Repo Mixer Tools -->
<svg width="800px" height="800px" viewBox="-30.5 0 1019 1019" style="shape-rendering:geometricPrecision; text-rendering:geometricPrecision; image-rendering:optimizeQuality; fill-rule:evenodd; clip-rule:evenodd" version="1.1" xml:space="preserve" xmlns="http://www.w3.org/2000/svg" xmlns:xlink="http://www.w3.org/1999/xlink">
<defs>
<style type="text/css">
   <![CDATA[
    .fil0 {fill:#FEFEFE}
    .fil1 {fill:#1D1819}
   ]]>
  </style>
</defs>
<g id="Layer_x0020_1">
<g id="_601296256">
<polygon class="fil0" points="958,893 958,1019 572,1019 572,954 317,954 317,1019 0,1019 0,893 61,893 61,637 126,637 126,572 191,572 191,446 126,446 126,381 61,381 61,317 0,317 0,126 61,126 61,61 126,61 126,0 317,0 317,61 252,61 252,126 317,126 317,187 191,187 191,252 698,252 698,187 511,187 511,126 576,126 576,61 511,61 511,0 763,0 763,61 828,61 828,126 893,126 893,191 958,191 958,317 893,317 893,381 828,381 828,450 763,450 763,572 828,572 828,637 893,637 893,893 "/>
<path class="fil1" d="M126 0l191 0 0 61 -65 0 0 65 65 0 0 61 -65 0 -61 0 -65 0 0 65 65 0 0 65 507 0 0 -65 65 0 0 -65 -65 0 0 -61 -61 0 0 -65 126 0 65 0 0 65 65 0 0 65 65 0 0 126 -65 0 0 -126 -65 0 0 -65 -65 0 0 -65 0 -61 -252 0 0 61 65 0 0 65 -65 0 0 61 65 0 61 0 61 0 0 65 -507 0 0 -65 0 -61 0 -65 -65 0 -65 0 0 65 -61 0 0 191 61 0 0 64 65 0 0 65 65 0 0 126 -65 0 0 65 -61 0 0 191 0 65 -65 0 0 61 0 65 65 0 61 0 65 0 126 0 0 -65 65 0 60 0 130 0 0 65 382 0 0 -65 0 -61 -61 0 0 61 -65 0 0 -61 65 0 0 -256 -65 0 0 -65 -65 0 0 -122 65 0 0 -65 -65 0 -65 0 0 65 0 122 -65 0 0 65 -381 0 0 -65 0 -126 0 -65 -61 0 -65 0 0 -64 -65 0 0 -191 65 0 0 -65 0 -61zm637 954l-126 0 0 -61 126 0 0 61zm-126 -61l-195 0 0 -65 195 0 0 65zm61 -65l0 -61 -256 0 0 -69 191 0 65 0 0 69 65 0 0 -69 -65 0 0 -61 0 -65 65 0 0 65 65 0 0 191 -130 0zm-633 65l61 0 0 61 -61 0 0 -61zm126 61l0 -61 61 0 0 61 -61 0zm-65 -126l0 -191 65 0 61 0 0 61 -61 0 0 69 61 0 0 -69 130 0 0 69 -191 0 0 61 -65 0zm126 0l130 0 0 65 -130 0 0 -65zm320 -382l-61 0 0 126 61 0 0 -126zm-190 0l-61 0 0 126 61 0 0 -126zm-130 -65l65 0 0 -64 -65 0 0 64zm255 -64l-125 0 0 64 125 0 0 -64zm191 68l0 -68 -65 0 0 68 65 0zm195 -68l-65 0 0 64 65 0 0 -64z"/>
</g>
</g>
</svg>